<svg version="1.1"
	 xmlns="http://www.w3.org/2000/svg" xmlns:xlink="http://www.w3.org/1999/xlink" xmlns:a="http://ns.adobe.com/AdobeSVGViewerExtensions/3.0/"
	 x="0px" y="0px" width="14.2px" height="14.2px" viewBox="0 0 14.2 14.2" enable-background="new 0 0 14.2 14.2"
	 xml:space="preserve">
<defs>
</defs>
<path d="M9.2,7.1l4.5-4.5c0.6-0.6,0.6-1.5,0-2.1s-1.5-0.6-2.1,0L7.1,5L2.6,0.4C2-0.1,1-0.1,0.4,0.4s-0.6,1.5,0,2.1L5,7.1l-4.5,4.5
	c-0.6,0.6-0.6,1.5,0,2.1c0.3,0.3,0.7,0.4,1.1,0.4s0.8-0.1,1.1-0.4l4.5-4.5l4.5,4.5c0.3,0.3,0.7,0.4,1.1,0.4s0.8-0.1,1.1-0.4
	c0.6-0.6,0.6-1.5,0-2.1L9.2,7.1z"/>
</svg>
