<svg version="1.1"
	 xmlns="http://www.w3.org/2000/svg" xmlns:xlink="http://www.w3.org/1999/xlink" xmlns:a="http://ns.adobe.com/AdobeSVGViewerExtensions/3.0/"
	 x="0px" y="0px" width="24px" height="24px" viewBox="0 0 24 24" enable-background="new 0 0 24 24" xml:space="preserve">
<path d="M21.3,16.1c-1.8,1.8-4.1,2.8-6.6,2.8c-2.3,0-4.5-0.9-6.2-2.4l-0.8,0.8c0.3,0.6,0.2,1.4-0.3,1.9l-4.4,4.5
	c-0.7,0.7-1.9,0.5-2.4,0c-0.7-0.7-0.7-1.7,0-2.4l4.4-4.5c0.5-0.5,1.3-0.5,1.9-0.3l0.8-0.8c-1.5-1.7-2.3-3.9-2.3-6.2
	c0-2.5,1-4.9,2.8-6.6C9.8,1,12.2,0,14.7,0c2.5,0,4.9,1,6.6,2.8C23,4.5,24,6.9,24,9.4C24,11.9,23,14.3,21.3,16.1z M18.7,5.3
	c-1.1-1.1-2.5-1.7-4-1.7c-1.5,0-3,0.6-4,1.7C9.6,6.4,9,7.8,9,9.4h0c0,1.5,0.6,2.9,1.7,4c1.1,1.1,2.5,1.6,4,1.6c1.5,0,2.9-0.6,4-1.7
	c1.1-1.1,1.6-2.5,1.6-4C20.3,7.8,19.7,6.3,18.7,5.3z M5.3,9.4L5.3,9.4L5.3,9.4L5.3,9.4z"/>
</svg>
