<!-- Generated by IcoMoon.io -->
<svg version="1.1" xmlns="http://www.w3.org/2000/svg" width="20" height="16" viewBox="0 0 20 16">
<title>twitter</title>
<path d="M6.206 15.934c7.369 0 11.398-6.105 11.398-11.398 0-0.173-0.004-0.346-0.011-0.518 0.782-0.565 1.462-1.271 1.998-2.074-0.718 0.319-1.49 0.534-2.301 0.631 0.827-0.496 1.462-1.281 1.762-2.216-0.774 0.459-1.631 0.792-2.544 0.972-0.731-0.779-1.772-1.266-2.924-1.266-2.212 0-4.006 1.794-4.006 4.006 0 0.314 0.035 0.62 0.104 0.913-3.33-0.168-6.282-1.762-8.258-4.186-0.344 0.592-0.542 1.28-0.542 2.014 0 1.39 0.707 2.617 1.783 3.335-0.657-0.020-1.275-0.201-1.814-0.501-0.001 0.017-0.001 0.033-0.001 0.051 0 1.94 1.381 3.56 3.214 3.927-0.337 0.092-0.691 0.141-1.056 0.141-0.258 0-0.509-0.025-0.753-0.072 0.51 1.592 1.989 2.75 3.742 2.782-1.371 1.075-3.098 1.715-4.976 1.715-0.323 0-0.642-0.018-0.956-0.055 1.773 1.136 3.878 1.8 6.141 1.8z"></path>
</svg>
